<?xml version="1.0" encoding="UTF-8"?>
<svg width="16px" height="16px" viewBox="0 0 16 16" version="1.1" xmlns="http://www.w3.org/2000/svg" xmlns:xlink="http://www.w3.org/1999/xlink">
    <!-- Generator: Sketch 52.3 (67297) - http://www.bohemiancoding.com/sketch -->
    <title>Shape</title>
    <desc>Created with Sketch.</desc>
    <g id="Symbols" stroke="none" stroke-width="1" fill="none" fill-rule="evenodd">
        <g id="Navigation-/-Global-Header" transform="translate(-1359.000000, -32.000000)" fill="#4A4A4A">
            <g id="Shape">
                <path d="M1372.93333,42.3351849 L1372.775,42.3351849 C1372.17333,42.3351849 1371.66667,41.8020259 1371.66667,41.1688995 L1371.66667,37.3368187 C1371.66667,34.3044765 1369.26,31.8719383 1366.34667,32.0052281 C1363.62333,32.1385178 1361.53333,34.6043785 1361.53333,37.5034309 L1361.53333,41.2022219 C1361.53333,41.8353483 1361.02667,42.3685074 1360.425,42.3685074 L1360.26667,42.3685074 C1359.57,42.3685074 1359,42.9683113 1359,43.701405 L1359,44.2012417 C1359,44.4344988 1359.22167,44.6677559 1359.475,44.6677559 L1373.725,44.6677559 C1373.97833,44.6677559 1374.2,44.4344988 1374.2,44.1679192 L1374.2,43.6680826 C1374.2,42.9349889 1373.63,42.3351849 1372.93333,42.3351849 L1372.93333,42.3351849 Z M1368.15167,46.0006535 L1365.04833,46.0006535 C1364.85833,46.0006535 1364.7,46.2005882 1364.73167,46.4005228 C1364.89,47.3335512 1365.68167,48 1366.6,48 C1367.51833,48 1368.31,47.3002287 1368.46833,46.4005228 C1368.5,46.2005882 1368.34167,46.0006535 1368.15167,46.0006535 L1368.15167,46.0006535 Z"></path>
            </g>
        </g>
    </g>
</svg>