<?xml version="1.0" encoding="UTF-8"?>
<svg width="16px" height="16px" viewBox="0 0 16 16" version="1.1" xmlns="http://www.w3.org/2000/svg" xmlns:xlink="http://www.w3.org/1999/xlink">
    <!-- Generator: Sketch 52.3 (67297) - http://www.bohemiancoding.com/sketch -->
    <title>close</title>
    <desc>Created with Sketch.</desc>
    <g id="Symbols" stroke="none" stroke-width="1" fill="none" fill-rule="evenodd">
        <g id="Desktop-Components-/Toast/Toast---Error" transform="translate(-608.000000, -16.000000)" fill="#FFFFFF">
            <g id="Toast_Info">
                <path d="M623.804878,18.0540541 C624.065041,17.7945946 624.065041,17.4054054 623.804878,17.1459459 L622.937669,16.2378378 C622.677507,15.9783784 622.287263,15.9783784 622.0271,16.2378378 L616.346883,21.9027027 C616.173442,22.0756757 615.913279,22.0756757 615.739837,21.9027027 L610.059621,16.1945946 C609.799458,15.9351351 609.409214,15.9351351 609.149051,16.1945946 L608.238482,17.1027027 C607.97832,17.3621622 607.97832,17.7513514 608.238482,18.0108108 L613.918699,23.6756757 C614.092141,23.8486486 614.092141,24.1081081 613.918699,24.2810811 L608.195122,29.9891892 C607.934959,30.2486486 607.934959,30.6378378 608.195122,30.8972973 L609.105691,31.8054054 C609.365854,32.0648649 609.756098,32.0648649 610.01626,31.8054054 L615.696477,26.1405405 C615.869919,25.9675676 616.130081,25.9675676 616.303523,26.1405405 L621.98374,31.8054054 C622.243902,32.0648649 622.634146,32.0648649 622.894309,31.8054054 L623.804878,30.8972973 C624.065041,30.6378378 624.065041,30.2486486 623.804878,29.9891892 L618.168022,24.3243243 C617.99458,24.1513514 617.99458,23.8918919 618.168022,23.7189189 L623.804878,18.0540541 Z" id="close"></path>
            </g>
        </g>
    </g>
</svg>