<?xml version="1.0" encoding="UTF-8"?>
<svg width="18px" height="18px" viewBox="0 0 18 18" version="1.1" xmlns="http://www.w3.org/2000/svg" xmlns:xlink="http://www.w3.org/1999/xlink">
    <!-- Generator: Sketch 52.5 (67469) - http://www.bohemiancoding.com/sketch -->
    <title>Group</title>
    <desc>Created with Sketch.</desc>
    <g id="Symbols" stroke="none" stroke-width="1" fill="none" fill-rule="evenodd">
        <g id="Desktop-Components-/Card/Marketing" transform="translate(-1086.000000, -28.000000)" fill="#B0ADAB">
            <g id="Notification-/-Announcement">
                <g id="Group" transform="translate(1086.000000, 28.000000)">
                    <path d="M11.4390244,8.68378378 L17.7804878,2.31081081 C18.0731707,2.01891892 18.0731707,1.58108108 17.7804878,1.28918919 L16.804878,0.267567568 C16.5121951,-0.0243243243 16.0731707,-0.0243243243 15.7804878,0.267567568 L9.3902439,6.64054054 C9.19512195,6.83513514 8.90243902,6.83513514 8.70731707,6.64054054 L2.31707317,0.218918919 C2.02439024,-0.072972973 1.58536585,-0.072972973 1.29268293,0.218918919 L0.268292683,1.24054054 C-0.0243902439,1.53243243 -0.0243902439,1.97027027 0.268292683,2.26216216 L6.65853659,8.63513514 C6.85365854,8.82972973 6.85365854,9.12162162 6.65853659,9.31621622 L0.219512195,15.7378378 C-0.0731707317,16.0297297 -0.0731707317,16.4675676 0.219512195,16.7594595 L1.24390244,17.7810811 C1.53658537,18.072973 1.97560976,18.072973 2.26829268,17.7810811 L8.65853659,11.4081081 C8.85365854,11.2135135 9.14634146,11.2135135 9.34146341,11.4081081 L15.7317073,17.7810811 C16.0243902,18.072973 16.4634146,18.072973 16.7560976,17.7810811 L17.7804878,16.7594595 C18.0731707,16.4675676 18.0731707,16.0297297 17.7804878,15.7378378 L11.4390244,9.36486486 C11.2439024,9.17027027 11.2439024,8.87837838 11.4390244,8.68378378 L11.4390244,8.68378378 Z" id="close"></path>
                </g>
            </g>
        </g>
    </g>
</svg>