<?xml version="1.0" encoding="UTF-8"?>
<svg width="24px" height="24px" viewBox="0 0 24 24" version="1.1" xmlns="http://www.w3.org/2000/svg" xmlns:xlink="http://www.w3.org/1999/xlink">
    <!-- Generator: Sketch 52.5 (67469) - http://www.bohemiancoding.com/sketch -->
    <title>Group</title>
    <desc>Created with Sketch.</desc>
    <g id="Symbols" stroke="none" stroke-width="1" fill="none" fill-rule="evenodd">
        <g id="Desktop-Components-/Card/With-Related-list" transform="translate(-13.000000, -13.000000)">
            <g id="Group" transform="translate(13.000000, 13.000000)">
                <rect id="Rectangle-2" fill="#0076CF" x="0" y="0" width="24" height="24" rx="2"></rect>
                <path d="M17.1333333,10.856528 C17.1333333,11.1216643 16.9233333,11.338594 16.6666667,11.338594 L13.1666667,11.338594 C12.91,11.338594 12.7,11.1216643 12.7,10.856528 L12.7,10.133429 C12.7,9.86829268 12.91,9.65136298 13.1666667,9.65136298 L16.6666667,9.65136298 C16.9233333,9.65136298 17.1333333,9.86829268 17.1333333,10.133429 L17.1333333,10.856528 Z M17.1333333,13.507891 C17.1333333,13.7730273 16.9233333,13.989957 16.6666667,13.989957 L14.5666667,13.989957 C14.31,13.989957 14.1,13.7730273 14.1,13.507891 L14.1,12.784792 C14.1,12.5196557 14.31,12.302726 14.5666667,12.302726 L16.6666667,12.302726 C16.9233333,12.302726 17.1333333,12.5196557 17.1333333,12.784792 L17.1333333,13.507891 Z M11.6733333,15.195122 L7.66,15.195122 C7.21666667,15.195122 6.86666667,14.6889527 6.86666667,14.2068867 C6.89,13.4837877 7.61333333,13.0499283 8.38333333,12.6883788 C8.92,12.4473458 8.99,12.2304161 8.99,11.9893831 C8.99,11.7483501 8.85,11.5314204 8.66333333,11.3626973 C8.36,11.0734577 8.17333333,10.6395983 8.17333333,10.1575323 C8.17333333,9.24160689 8.71,8.47030129 9.64333333,8.47030129 C10.5766667,8.47030129 11.1133333,9.24160689 11.1133333,10.1575323 C11.1133333,10.6395983 10.95,11.0734577 10.6233333,11.3626973 C10.4366667,11.5314204 10.2966667,11.7483501 10.2966667,11.9893831 C10.2966667,12.2304161 10.3666667,12.4473458 10.9033333,12.6642755 C11.6733333,13.0017217 12.3966667,13.4837877 12.42,14.2068867 C12.4666667,14.6889527 12.1166667,15.195122 11.6733333,15.195122 L11.6733333,15.195122 Z M17.6,7 L6.4,7 C5.63,7 5,7.6507891 5,8.44619799 L5,15.4361549 C5,16.2315638 5.63,16.8823529 6.4,16.8823529 L17.6,16.8823529 C18.37,16.8823529 19,16.2315638 19,15.4361549 L19,8.44619799 C19,7.6507891 18.37,7 17.6,7 L17.6,7 Z" id="Page-1" fill="#FFFFFF"></path>
            </g>
        </g>
    </g>
</svg>