<?xml version="1.0" encoding="UTF-8"?>
<svg width="14px" height="13px" viewBox="0 0 14 13" version="1.1" xmlns="http://www.w3.org/2000/svg" xmlns:xlink="http://www.w3.org/1999/xlink">
    <!-- Generator: Sketch 52.5 (67469) - http://www.bohemiancoding.com/sketch -->
    <title>Icons / Utility Icon</title>
    <desc>Created with Sketch.</desc>
    <defs>
        <path d="M7,0.538461538 C3.44615385,0.538461538 0.538461538,3.44615385 0.538461538,7 C0.538461538,10.5538462 3.44615385,13.4615385 7,13.4615385 C10.5538462,13.4615385 13.4615385,10.5538462 13.4615385,7 C13.4615385,3.44615385 10.5538462,0.538461538 7,0.538461538 Z M2.15384615,7 C2.15384615,4.33461538 4.33461538,2.15384615 7,2.15384615 C8.05,2.15384615 9.01923077,2.47692308 9.8,3.04230769 L3.04230769,9.8 C2.47692308,9.01923077 2.15384615,8.05 2.15384615,7 L2.15384615,7 Z M7,11.8461538 C5.95,11.8461538 4.98076923,11.5230769 4.2,10.9576923 L10.9576923,4.2 C11.5230769,4.98076923 11.8461538,5.95 11.8461538,7 C11.8461538,9.66538462 9.66538462,11.8461538 7,11.8461538 Z" id="path-1"></path>
    </defs>
    <g id="Symbols" stroke="none" stroke-width="1" fill="none" fill-rule="evenodd">
        <g id="Desktop-Components-/Progress-Indicator/Progress-Indicator---Error-" transform="translate(-284.000000, -1.000000)">
            <g id="Progress-Indicator---Error-">
                <g id="Icons-/-Utility-Icon" transform="translate(284.000000, 0.500000)">
                    <rect id="Rectangle" x="0" y="0" width="14" height="14"></rect>
                    <g id="Icons-/-z-embedded-/-icon-glyphs-/-utility-/ban">
                        <mask id="mask-2" fill="white">
                            <use xlink:href="#path-1"></use>
                        </mask>
                        <use id="Mask" fill="#000000" fill-rule="evenodd" xlink:href="#path-1"></use>
                        <g id="Icons-/-z-embedded-/Icon-color/Error" mask="url(#mask-2)" fill="#C23934" fill-rule="evenodd">
                            <rect id="color" x="0" y="0" width="14" height="14"></rect>
                        </g>
                    </g>
                </g>
            </g>
        </g>
    </g>
</svg>