<?xml version="1.0" encoding="UTF-8"?>
<svg width="16px" height="16px" viewBox="0 0 26 26" version="1.1" xmlns="http://www.w3.org/2000/svg" xmlns:xlink="http://www.w3.org/1999/xlink">
    <!-- Generator: Sketch 52.5 (67469) - http://www.bohemiancoding.com/sketch -->
    <title>Icons / z-embedded / icon glyphs / utility /event</title>
    <desc>Created with Sketch.</desc>
    <defs>
        <path d="M23.25,10 L2.75,10 C2.35,10 2,10.35 2,10.75 L2,23 C2,24.1 2.9,25 4,25 L22,25 C23.1,25 24,24.1 24,23 L24,10.75 C24,10.35 23.65,10 23.25,10 Z M9.5,21 C9.5,21.3 9.3,21.5 9,21.5 L7,21.5 C6.7,21.5 6.5,21.3 6.5,21 L6.5,19 C6.5,18.7 6.7,18.5 7,18.5 L9,18.5 C9.3,18.5 9.5,18.7 9.5,19 L9.5,21 Z M9.5,16 C9.5,16.3 9.3,16.5 9,16.5 L7,16.5 C6.7,16.5 6.5,16.3 6.5,16 L6.5,14 C6.5,13.7 6.7,13.5 7,13.5 L9,13.5 C9.3,13.5 9.5,13.7 9.5,14 L9.5,16 Z M14.5,21 C14.5,21.3 14.3,21.5 14,21.5 L12,21.5 C11.7,21.5 11.5,21.3 11.5,21 L11.5,19 C11.5,18.7 11.7,18.5 12,18.5 L14,18.5 C14.3,18.5 14.5,18.7 14.5,19 L14.5,21 Z M14.5,16 C14.5,16.3 14.3,16.5 14,16.5 L12,16.5 C11.7,16.5 11.5,16.3 11.5,16 L11.5,14 C11.5,13.7 11.7,13.5 12,13.5 L14,13.5 C14.3,13.5 14.5,13.7 14.5,14 L14.5,16 Z M19.5,21 C19.5,21.3 19.3,21.5 19,21.5 L17,21.5 C16.7,21.5 16.5,21.3 16.5,21 L16.5,19 C16.5,18.7 16.7,18.5 17,18.5 L19,18.5 C19.3,18.5 19.5,18.7 19.5,19 L19.5,21 Z M19.5,16 C19.5,16.3 19.3,16.5 19,16.5 L17,16.5 C16.7,16.5 16.5,16.3 16.5,16 L16.5,14 C16.5,13.7 16.7,13.5 17,13.5 L19,13.5 C19.3,13.5 19.5,13.7 19.5,14 L19.5,16 Z M22,3.5 L19.5,3.5 L19.5,2.5 C19.5,1.7 18.85,1 18,1 C17.2,1 16.5,1.65 16.5,2.5 L16.5,3.5 L9.5,3.5 L9.5,2.5 C9.5,1.7 8.85,1 8,1 C7.2,1 6.5,1.65 6.5,2.5 L6.5,3.5 L4,3.5 C2.9,3.5 2,4.4 2,5.5 L2,6.75 C2,7.15 2.35,7.5 2.75,7.5 L23.25,7.5 C23.65,7.5 24,7.15 24,6.75 L24,5.5 C24,4.4 23.1,3.5 22,3.5 Z" id="path-1"></path>
    </defs>
    <g id="Icons-/-z-embedded-/-icon-glyphs-/-utility-/event" stroke="none" stroke-width="1" fill="none" fill-rule="evenodd">
        <mask id="mask-2" fill="white">
            <use xlink:href="#path-1"></use>
        </mask>
        <use id="Mask" fill="#000000" xlink:href="#path-1"></use>
        <g id="z-embedded-/-Color-Tokens-/-PALETTE_GRAY_9" mask="url(#mask-2)" fill="#706E6B">
            <polygon id="Rectangle" points="0 0 26 0 26 26 0 26"></polygon>
        </g>
    </g>
</svg>