<?xml version="1.0" encoding="UTF-8"?>
<svg width="17px" height="16px" viewBox="0 0 17 16" version="1.1" xmlns="http://www.w3.org/2000/svg" xmlns:xlink="http://www.w3.org/1999/xlink">
    <!-- Generator: Sketch 52.5 (67469) - http://www.bohemiancoding.com/sketch -->
    <title>Shape</title>
    <desc>Created with Sketch.</desc>
    <g id="Symbols" stroke="none" stroke-width="1" fill="none" fill-rule="evenodd" opacity="0.5">
        <g id="Footer/WhiteOneDIFC" transform="translate(-614.000000, -177.000000)" fill="#171717">
            <g id="Footer">
                <g id="Group" transform="translate(148.000000, 92.000000)">
                    <g id="Social" transform="translate(286.000000, 77.000000)">
                        <g id="IG" transform="translate(172.000000, 0.000000)">
                            <path d="M16.0070006,8 C13.8326139,8 13.5597314,8.0095 12.7057225,8.04833333 C11.8533815,8.08733333 11.271588,8.22216667 10.7625186,8.42 C10.2359354,8.62433333 9.78924872,8.89766667 9.34423002,9.3425 C8.89887772,9.78716667 8.625328,10.2335 8.4201657,10.7595 C8.22167536,11.2683333 8.08656848,11.8498333 8.0482048,12.7011667 C8.01000792,13.5545 8,13.8273333 8,16 C8,18.1726667 8.00967432,18.4445 8.0483716,19.2978333 C8.08756927,20.1495 8.22250935,20.7308333 8.4203325,21.2395 C8.6249944,21.7656667 8.89854413,22.212 9.34372962,22.6566667 C9.78858152,23.1016667 10.2352682,23.3756667 10.7615178,23.58 C11.2709208,23.7778333 11.8528811,23.9126667 12.7050553,23.9516667 C13.5590642,23.9905 13.8317799,24 16.0059998,24 C18.1805533,24 18.4526019,23.9905 19.3066107,23.9516667 C20.1589517,23.9126667 20.7414124,23.7778333 21.2508154,23.58 C21.7772318,23.3756667 22.2232513,23.1016667 22.6681032,22.6566667 C23.1134555,22.212 23.3870052,21.7656667 23.5921675,21.2396667 C23.7889899,20.7308333 23.9240967,20.1493333 23.9641284,19.298 C24.0024921,18.4446667 24.0125,18.1726667 24.0125,16 C24.0125,13.8273333 24.0024921,13.5546667 23.9641284,12.7013333 C23.9240967,11.8496667 23.7889899,11.2683333 23.5921675,10.7596667 C23.3870052,10.2335 23.1134555,9.78716667 22.6681032,9.3425 C22.2227509,8.8975 21.7773986,8.62416667 21.250315,8.42 C20.7399112,8.22216667 20.1577841,8.08733333 19.3054432,8.04833333 C18.4514343,8.0095 18.1795525,8 16.0044986,8 L16.0070006,8 Z M20.2807146,10.77 C19.7502951,10.77 19.3199546,11.1995 19.3199546,11.7296667 C19.3199546,12.2596667 19.7502951,12.6896667 20.2807146,12.6896667 C20.8111342,12.6896667 21.2414747,12.2596667 21.2414747,11.7296667 C21.2414747,11.1996667 20.8111342,10.7696667 20.2807146,10.7696667 L20.2807146,10.77 Z M16.0070006,11.8916667 C13.7363711,11.8916667 11.8954148,13.7311667 11.8954148,16 C11.8954148,18.2688333 13.7363711,20.1075 16.0070006,20.1075 C18.2776301,20.1075 20.1179192,18.2688333 20.1179192,16 C20.1179192,13.7311667 18.2774633,11.8916667 16.0068338,11.8916667 L16.0070006,11.8916667 Z M16.0070006,13.3333333 C17.4808331,13.3333333 18.6757784,14.5271667 18.6757784,16 C18.6757784,17.4726667 17.4808331,18.6666667 16.0070006,18.6666667 C14.5330013,18.6666667 13.3382228,17.4726667 13.3382228,16 C13.3382228,14.5271667 14.5330013,13.3333333 16.0070006,13.3333333 L16.0070006,13.3333333 Z" id="Shape"></path>
                        </g>
                    </g>
                </g>
            </g>
        </g>
    </g>
</svg>