<?xml version="1.0" encoding="UTF-8"?>
<svg width="18px" height="16px" viewBox="0 0 18 16" version="1.1" xmlns="http://www.w3.org/2000/svg" xmlns:xlink="http://www.w3.org/1999/xlink">
    <!-- Generator: Sketch 52.5 (67469) - http://www.bohemiancoding.com/sketch -->
    <title>Shape</title>
    <desc>Created with Sketch.</desc>
    <g id="Symbols" stroke="none" stroke-width="1" fill="none" fill-rule="evenodd" opacity="0.5">
        <g id="Footer/WhiteOneDIFC" transform="translate(-485.000000, -177.000000)" fill="#171717">
            <g id="Footer">
                <g id="Group" transform="translate(148.000000, 92.000000)">
                    <g id="Social" transform="translate(286.000000, 77.000000)">
                        <g id="Ld" transform="translate(43.000000, 0.000000)">
                            <path d="M11.8605195,13.0824828 L11.8605195,23.6255224 L8.21553687,23.6255224 L8.21553687,13.0824828 L11.8605195,13.0824828 Z M12.1005872,9.82109529 C12.1005872,10.8334213 11.3090479,11.6434501 10.038101,11.6434501 L10.0148075,11.6434501 C8.79110258,11.6434501 8,10.8334213 8,9.82109529 C8,8.78735693 8.81519671,8 10.0621223,8 C11.3090479,8 12.0769298,8.78735693 12.1005872,9.82109529 Z M25.0057211,17.5804657 L25.0055755,23.6255224 L21.3607385,23.6255224 L21.3607385,17.9849903 C21.3607385,16.5682096 20.8332882,15.6014372 19.5137891,15.6014372 C18.5067857,15.6014372 17.9069803,16.2531829 17.6435463,16.8826766 C17.5471698,17.1082755 17.5235124,17.4226025 17.5235124,17.7376992 L17.5235124,23.6258023 L13.8780931,23.6258023 C13.8780931,23.6258023 13.9261358,14.072067 13.8780931,13.0827627 L17.5235124,13.0827627 L17.5235124,14.5760958 C18.0072875,13.8582239 18.8737298,12.8349118 20.8089757,12.8349118 C23.2075423,12.8349118 25.0057211,14.3420999 25.0057211,17.5804657 Z" id="Shape"></path>
                        </g>
                    </g>
                </g>
            </g>
        </g>
    </g>
</svg>