<?xml version="1.0" encoding="UTF-8"?>
<svg class="slds-button__icon" aria-hidden="true" width="12px" height="13px" viewBox="0 0 12 13" version="1.1" xmlns="http://www.w3.org/2000/svg" xmlns:xlink="http://www.w3.org/1999/xlink">
    <!-- Generator: Sketch 52.5 (67469) - http://www.bohemiancoding.com/sketch -->
    <title>button icon</title>
    <desc>Created with Sketch.</desc>
    <g id="Desktop-Components-InProgress" stroke="none" stroke-width="1" fill="none" fill-rule="evenodd">
        <g id="Button-Icon" transform="translate(-34.000000, -106.000000)" fill="#706E6B">
            <g id="Desktop-Components-/-Button-Icon-/-Button-Icon-Default" transform="translate(34.000000, 106.000000)">
                <g id="icon-default">
                    <path d="M6.01684404,9.51665681 C4.37402306,9.51665681 3.05437998,8.18432486 3.05437998,6.52570753 C3.05437998,4.8670902 4.37402306,3.53475824 6.01684404,3.53475824 C7.65966501,3.53475824 8.97930809,4.8670902 8.97930809,6.52570753 C8.97930809,8.18432486 7.65966501,9.51665681 6.01684404,9.51665681 M11.6724572,8.23870575 L10.675992,7.39580186 C10.729855,7.09670693 10.7567865,6.77042156 10.7567865,6.47132663 C10.7567865,6.1722317 10.729855,5.84594633 10.675992,5.5468514 L11.6724572,4.70394751 C11.9956351,4.43204303 12.1033611,3.94261496 11.8879092,3.56194869 L11.4570053,2.80061615 C11.2954163,2.52871167 10.9991699,2.36556898 10.675992,2.36556898 C10.5682661,2.36556898 10.4605401,2.39275943 10.3797456,2.41994987 L9.14089704,2.88218749 C8.65613019,2.44714032 8.11750036,2.14804539 7.55193904,1.95771226 L7.33648711,0.679761201 C7.25569264,0.244714032 6.87865176,0 6.4477479,0 L5.58594017,0 C5.15503631,0 4.77799543,0.244714032 4.69720096,0.679761201 L4.48174903,1.93052181 C3.88925622,2.12085495 3.35062639,2.44714032 2.86585954,2.85499704 L1.62701094,2.39275943 C1.51928498,2.36556898 1.4384905,2.33837853 1.33076454,2.33837853 C1.00758664,2.33837853 0.711340234,2.50152122 0.549751286,2.7734257 L0.118847424,3.53475824 C-0.0966045071,3.91542452 -0.015810033,4.40485258 0.334299355,4.67675706 L1.33076454,5.51966095 C1.27690155,5.81875588 1.24997006,6.14504125 1.24997006,6.44413618 C1.24997006,6.77042156 1.27690155,7.06951649 1.33076454,7.36861141 L0.334299355,8.2115153 C0.0111214584,8.48341978 -0.0966045071,8.97284785 0.118847424,9.35351412 L0.549751286,10.1148467 C0.711340234,10.3867511 1.00758664,10.5498938 1.33076454,10.5498938 C1.4384905,10.5498938 1.54621647,10.5227034 1.62701094,10.4955129 L2.86585954,10.0332753 C3.35062639,10.4683225 3.88925622,10.7674174 4.45481754,10.9577506 L4.67026947,12.2628921 C4.75106394,12.6979392 5.10117333,12.9970342 5.55900868,12.9970342 L6.42081641,12.9970342 C6.85172027,12.9970342 7.22876115,12.6707488 7.30955562,12.2357016 L7.52500755,10.9305601 C8.14443185,10.7130365 8.70999317,10.3867511 9.19476002,9.92451353 L10.3528141,10.3867511 C10.4605401,10.4139416 10.5682661,10.441132 10.675992,10.441132 C10.9991699,10.441132 11.2954163,10.2779894 11.4570053,10.0060849 L11.8609777,9.29913322 C12.1033611,9.0000383 11.9956351,8.51061023 11.6724572,8.23870575 M6.01684404,4.62237616 C4.96651587,4.62237616 4.13163964,5.46528005 4.13163964,6.52570753 C4.13163964,7.586135 4.96651587,8.42903889 6.01684404,8.42903889 C7.0671722,8.42903889 7.90204843,7.586135 7.90204843,6.52570753 C7.90204843,5.46528005 7.0671722,4.62237616 6.01684404,4.62237616" id="settings-icon"></path>
                </g>
            </g>
        </g>
    </g>
</svg>