<?xml version="1.0" encoding="UTF-8"?>
<svg width="16px" height="13px" viewBox="0 0 16 13" version="1.1" xmlns="http://www.w3.org/2000/svg" xmlns:xlink="http://www.w3.org/1999/xlink">
    <!-- Generator: Sketch 52.5 (67469) - http://www.bohemiancoding.com/sketch -->
    <title>Shape</title>
    <desc>Created with Sketch.</desc>
    <g id="Symbols" stroke="none" stroke-width="1" fill="none" fill-rule="evenodd" opacity="0.5">
        <g id="Footer/WhiteOneDIFC" transform="translate(-529.000000, -179.000000)" fill="#171717">
            <g id="Footer">
                <g id="Group" transform="translate(148.000000, 92.000000)">
                    <g id="Social" transform="translate(286.000000, 77.000000)">
                        <g id="Tw" transform="translate(86.000000, 0.000000)">
                            <path d="M16.5266774,13.3441968 L16.5602786,13.8879466 L16.000258,13.821365 C13.9617829,13.5661355 12.1809172,12.7005747 10.6688615,11.2468764 L9.92963426,10.5255757 L9.73922724,11.0582286 C9.33601238,12.2456004 9.59362188,13.4995539 10.4336528,14.3429208 C10.8816693,14.8089921 10.7808656,14.8755737 10.0080371,14.5981503 C9.73922724,14.5093748 9.50401857,14.4427932 9.48161775,14.476084 C9.40321486,14.5537626 9.67202477,15.5635835 9.88483261,15.9630731 C10.1760433,16.5179198 10.7696652,17.0616695 11.4192892,17.3834806 L11.9681094,17.6387101 L11.3184854,17.649807 C10.6912623,17.649807 10.6688615,17.6609039 10.736064,17.8939395 C10.9600722,18.6152402 11.8449048,19.3809286 12.8305412,19.7138366 L13.5249668,19.9468722 L12.9201445,20.3019741 C12.0241114,20.812433 10.9712726,21.1009533 9.91843385,21.1231472 C9.41441527,21.1342441 9,21.1786318 9,21.2119226 C9,21.322892 10.3664504,21.9443202 11.1616797,22.1884528 C13.5473676,22.9097535 16.381072,22.5990393 18.5091504,21.3672797 C20.0212062,20.490622 21.5332619,18.7484034 22.2388879,17.0616695 C22.6197019,16.1628179 23.000516,14.5204718 23.000516,13.7325895 C23.000516,13.2221306 23.0341172,13.155549 23.6613403,12.5452176 C24.0309539,12.1901158 24.3781667,11.8017231 24.4453692,11.6907538 C24.5573733,11.479912 24.5461729,11.479912 23.9749519,11.6685599 C23.0229168,12.0014679 22.8885118,11.9570802 23.3589292,11.4577182 C23.706142,11.1026163 24.1205572,10.4589941 24.1205572,10.2703463 C24.1205572,10.2370555 23.952551,10.2925401 23.762144,10.3924125 C23.5605366,10.5033819 23.1125201,10.6698359 22.7765077,10.7697083 L22.1716854,10.9583562 L21.6228652,10.5921573 C21.320454,10.3924125 20.8948384,10.1704739 20.6708301,10.1038923 C20.099609,9.94853521 19.2259769,9.97072908 18.7107579,10.14828 C17.3107063,10.647642 16.4258737,11.9348863 16.5266774,13.3441968 Z" id="Shape"></path>
                        </g>
                    </g>
                </g>
            </g>
        </g>
    </g>
</svg>