<?xml version="1.0" encoding="UTF-8"?>
<svg width="19px" height="13px" viewBox="0 0 19 13" version="1.1" xmlns="http://www.w3.org/2000/svg" xmlns:xlink="http://www.w3.org/1999/xlink">
    <!-- Generator: Sketch 52.5 (67469) - http://www.bohemiancoding.com/sketch -->
    <title>youtube</title>
    <desc>Created with Sketch.</desc>
    <g id="Symbols" stroke="none" stroke-width="1" fill="none" fill-rule="evenodd" opacity="0.5">
        <g id="Footer/WhiteOneDIFC" transform="translate(-570.000000, -179.000000)" fill="#171717">
            <g id="Footer">
                <g id="Group" transform="translate(148.000000, 92.000000)">
                    <g id="Social" transform="translate(286.000000, 77.000000)">
                        <g id="Youtube" transform="translate(129.000000, 0.000000)">
                            <path d="M25.81,12.8042387 C25.81,12.8042387 26,14.3002177 26,15.7956191 L26,17.1980273 C26,18.6940063 25.81,20.1894077 25.81,20.1894077 C25.81,20.1894077 25.6241562,21.4630115 25.05475,22.0238592 C24.3321562,22.7602968 23.5222812,22.7637624 23.1511875,22.8070822 C20.492375,22.994224 16.5,23 16.5,23 C16.5,23 11.56,22.9561025 10.04,22.8140134 C9.61725,22.7371929 8.66784375,22.7602968 7.94465625,22.0238592 C7.37525,21.4630115 7.19,20.1894077 7.19,20.1894077 C7.19,20.1894077 7,18.6940063 7,17.1980273 L7,15.7956191 C7,14.3002177 7.19,12.8042387 7.19,12.8042387 C7.19,12.8042387 7.37525,11.5306349 7.94465625,10.9697872 C8.66784375,10.2333496 9.477125,10.229884 9.8488125,10.1871418 C12.507625,10 16.4958437,10 16.4958437,10 L16.5041563,10 C16.5041563,10 20.492375,10 23.1511875,10.1871418 C23.5222812,10.229884 24.3321562,10.2333496 25.05475,10.9697872 C25.6241562,11.5306349 25.81,12.8042387 25.81,12.8042387 Z M14.53825,18.8973208 L19.6712188,16.3096814 L14.5376563,13.7041365 L14.53825,18.8973208 Z" id="youtube"></path>
                        </g>
                    </g>
                </g>
            </g>
        </g>
    </g>
</svg>